<svg width="207" height="59" viewBox="0 0 207 59" fill="none" xmlns="http://www.w3.org/2000/svg">
<path d="M3.25 46.5625C4.90625 46.5625 5.96875 45.3125 5.96875 43.6562V25.625C5.96875 21.125 9.09375 17.75 13.4062 17.75C17.4375 17.75 20.0625 20.3125 20.0625 24.2188V43.6562C20.0625 45.3125 21.125 46.5625 22.7812 46.5625C24.4375 46.5625 25.5 45.3125 25.5 43.6562V25.3438C25.5 20.9375 28.5312 17.75 32.8438 17.75C37.125 17.75 39.5938 20.375 39.5938 24.8125V43.6562C39.5938 45.3125 40.6562 46.5625 42.3125 46.5625C43.9688 46.5625 45.0312 45.3125 45.0312 43.6562V23.5625C45.0312 17.125 40.875 12.9375 34.4375 12.9375C29.875 12.9375 26.0625 15.25 24.25 19.125H24.125C22.7188 15.1875 19.4375 12.9375 15 12.9375C10.625 12.9375 7.3125 15.25 5.78125 18.6875H5.65625V15.6875C5.65625 14.0625 4.59375 12.9375 3.09375 12.9375C1.59375 12.9375 0.53125 14.0625 0.53125 15.6875V43.6562C0.53125 45.3125 1.59375 46.5625 3.25 46.5625ZM65.4375 46.5625C74.4062 46.5625 80.4688 40.0938 80.4688 29.75C80.4688 19.375 74.4062 12.9375 65.4375 12.9375C56.4375 12.9375 50.375 19.375 50.375 29.75C50.375 40.0938 56.4375 46.5625 65.4375 46.5625ZM65.4375 41.7812C59.6875 41.7812 55.9062 37.4062 55.9062 29.75C55.9062 22.0938 59.6875 17.7188 65.4375 17.7188C71.1875 17.7188 74.9375 22.0938 74.9375 29.75C74.9375 37.4062 71.1875 41.7812 65.4375 41.7812ZM88.7812 46.5625C90.3438 46.5625 91.4375 45.4688 91.4375 43.9062V40.5H91.5625C93.6875 44.25 97.4062 46.5625 102.156 46.5625C110.469 46.5625 115.969 39.9688 115.969 29.75C115.969 19.5625 110.438 12.9375 102.25 12.9375C97.6562 12.9375 93.875 15.2188 91.8125 18.9375H91.6875V3.25C91.6875 1.53125 90.5625 0.34375 88.9688 0.34375C87.375 0.34375 86.25 1.53125 86.25 3.25V43.9062C86.25 45.5 87.25 46.5625 88.7812 46.5625ZM101.094 41.7812C95.5938 41.7812 91.6562 37 91.6562 29.75C91.6562 22.5312 95.5938 17.7188 101.094 17.7188C106.844 17.7188 110.406 22.375 110.406 29.75C110.406 37.1875 106.844 41.7812 101.094 41.7812ZM124.469 8.03125C126.344 8.03125 127.875 6.5 127.875 4.65625C127.875 2.78125 126.344 1.28125 124.469 1.28125C122.625 1.28125 121.094 2.78125 121.094 4.65625C121.094 6.5 122.625 8.03125 124.469 8.03125ZM124.469 46.5625C126.062 46.5625 127.188 45.375 127.188 43.6562V15.8438C127.188 14.125 126.062 12.9375 124.469 12.9375C122.875 12.9375 121.75 14.125 121.75 15.8438V43.6562C121.75 45.375 122.875 46.5625 124.469 46.5625ZM137.531 46.5625C139.125 46.5625 140.25 45.375 140.25 43.6562V3.25C140.25 1.53125 139.125 0.34375 137.531 0.34375C135.938 0.34375 134.812 1.53125 134.812 3.25V43.6562C134.812 45.375 135.938 46.5625 137.531 46.5625ZM150.594 8.03125C152.469 8.03125 154 6.5 154 4.65625C154 2.78125 152.469 1.28125 150.594 1.28125C148.75 1.28125 147.219 2.78125 147.219 4.65625C147.219 6.5 148.75 8.03125 150.594 8.03125ZM150.594 46.5625C152.188 46.5625 153.312 45.375 153.312 43.6562V15.8438C153.312 14.125 152.188 12.9375 150.594 12.9375C149 12.9375 147.875 14.125 147.875 15.8438V43.6562C147.875 45.375 149 46.5625 150.594 46.5625ZM162.406 38.5C162.406 43.6875 165.031 46.25 170.281 46.25H170.625C173.656 46.25 174.594 45.375 174.594 43.7188C174.594 42.4375 173.781 41.7188 172 41.5938L171.531 41.5625C168.812 41.375 167.844 40.0625 167.844 37.3125V17.9688H172.031C173.594 17.9688 174.469 17.1562 174.469 15.7188C174.469 14.3125 173.594 13.5 172.031 13.5H167.844V7.9375C167.844 6.21875 166.719 5.03125 165.125 5.03125C163.531 5.03125 162.406 6.21875 162.406 7.9375V13.5H159.688C158.125 13.5 157.25 14.3125 157.25 15.7188C157.25 17.1562 158.125 17.9688 159.688 17.9688H162.406V38.5ZM183.156 58.1562C188.531 58.1562 191.188 55.75 194 48.2812L206 16.875C206.188 16.3438 206.281 15.8438 206.281 15.4375C206.281 13.9688 205.188 12.9375 203.625 12.9375C202.281 12.9375 201.562 13.5 201.062 14.9375L192.062 40.5625H191.969L183 14.9375C182.5 13.5 181.688 12.9375 180.406 12.9375C178.844 12.9375 177.688 13.9375 177.688 15.4375C177.688 15.8438 177.781 16.3438 177.969 16.875L189.156 46.0312L188.406 48.3125C187.125 52.25 185.156 53.5 183.094 53.5C182.25 53.5 182.031 53.4688 181.25 53.4688C179.875 53.4688 179.062 54.2812 179.062 55.4688C179.062 57.1875 180.531 58.1562 183.156 58.1562Z" fill="#FE6748"/>
</svg>
