<svg width="464" height="131" viewBox="0 0 464 131" fill="none" xmlns="http://www.w3.org/2000/svg">
<path d="M7.0625 104.266C10.7891 104.266 13.1797 101.453 13.1797 97.7266V57.1562C13.1797 47.0312 20.2109 39.4375 29.9141 39.4375C38.9844 39.4375 44.8906 45.2031 44.8906 53.9922V97.7266C44.8906 101.453 47.2812 104.266 51.0078 104.266C54.7344 104.266 57.125 101.453 57.125 97.7266V56.5234C57.125 46.6094 63.9453 39.4375 73.6484 39.4375C83.2812 39.4375 88.8359 45.3438 88.8359 55.3281V97.7266C88.8359 101.453 91.2266 104.266 94.9531 104.266C98.6797 104.266 101.07 101.453 101.07 97.7266V52.5156C101.07 38.0312 91.7188 28.6094 77.2344 28.6094C66.9688 28.6094 58.3906 33.8125 54.3125 42.5312H54.0312C50.8672 33.6719 43.4844 28.6094 33.5 28.6094C23.6562 28.6094 16.2031 33.8125 12.7578 41.5469H12.4766V34.7969C12.4766 31.1406 10.0859 28.6094 6.71094 28.6094C3.33594 28.6094 0.945312 31.1406 0.945312 34.7969V97.7266C0.945312 101.453 3.33594 104.266 7.0625 104.266ZM146.984 104.266C167.164 104.266 180.805 89.7109 180.805 66.4375C180.805 43.0938 167.164 28.6094 146.984 28.6094C126.734 28.6094 113.094 43.0938 113.094 66.4375C113.094 89.7109 126.734 104.266 146.984 104.266ZM146.984 93.5078C134.047 93.5078 125.539 83.6641 125.539 66.4375C125.539 49.2109 134.047 39.3672 146.984 39.3672C159.922 39.3672 168.359 49.2109 168.359 66.4375C168.359 83.6641 159.922 93.5078 146.984 93.5078ZM199.508 104.266C203.023 104.266 205.484 101.805 205.484 98.2891V90.625H205.766C210.547 99.0625 218.914 104.266 229.602 104.266C248.305 104.266 260.68 89.4297 260.68 66.4375C260.68 43.5156 248.234 28.6094 229.812 28.6094C219.477 28.6094 210.969 33.7422 206.328 42.1094H206.047V6.8125C206.047 2.94531 203.516 0.273438 199.93 0.273438C196.344 0.273438 193.812 2.94531 193.812 6.8125V98.2891C193.812 101.875 196.062 104.266 199.508 104.266ZM227.211 93.5078C214.836 93.5078 205.977 82.75 205.977 66.4375C205.977 50.1953 214.836 39.3672 227.211 39.3672C240.148 39.3672 248.164 49.8438 248.164 66.4375C248.164 83.1719 240.148 93.5078 227.211 93.5078ZM279.805 17.5703C284.023 17.5703 287.469 14.125 287.469 9.97656C287.469 5.75781 284.023 2.38281 279.805 2.38281C275.656 2.38281 272.211 5.75781 272.211 9.97656C272.211 14.125 275.656 17.5703 279.805 17.5703ZM279.805 104.266C283.391 104.266 285.922 101.594 285.922 97.7266V35.1484C285.922 31.2812 283.391 28.6094 279.805 28.6094C276.219 28.6094 273.688 31.2812 273.688 35.1484V97.7266C273.688 101.594 276.219 104.266 279.805 104.266ZM309.195 104.266C312.781 104.266 315.312 101.594 315.312 97.7266V6.8125C315.312 2.94531 312.781 0.273438 309.195 0.273438C305.609 0.273438 303.078 2.94531 303.078 6.8125V97.7266C303.078 101.594 305.609 104.266 309.195 104.266ZM338.586 17.5703C342.805 17.5703 346.25 14.125 346.25 9.97656C346.25 5.75781 342.805 2.38281 338.586 2.38281C334.438 2.38281 330.992 5.75781 330.992 9.97656C330.992 14.125 334.438 17.5703 338.586 17.5703ZM338.586 104.266C342.172 104.266 344.703 101.594 344.703 97.7266V35.1484C344.703 31.2812 342.172 28.6094 338.586 28.6094C335 28.6094 332.469 31.2812 332.469 35.1484V97.7266C332.469 101.594 335 104.266 338.586 104.266ZM365.164 86.125C365.164 97.7969 371.07 103.562 382.883 103.562H383.656C390.477 103.562 392.586 101.594 392.586 97.8672C392.586 94.9844 390.758 93.3672 386.75 93.0859L385.695 93.0156C379.578 92.5938 377.398 89.6406 377.398 83.4531V39.9297H386.82C390.336 39.9297 392.305 38.1016 392.305 34.8672C392.305 31.7031 390.336 29.875 386.82 29.875H377.398V17.3594C377.398 13.4922 374.867 10.8203 371.281 10.8203C367.695 10.8203 365.164 13.4922 365.164 17.3594V29.875H359.047C355.531 29.875 353.562 31.7031 353.562 34.8672C353.562 38.1016 355.531 39.9297 359.047 39.9297H365.164V86.125ZM411.852 130.352C423.945 130.352 429.922 124.938 436.25 108.133L463.25 37.4688C463.672 36.2734 463.883 35.1484 463.883 34.2344C463.883 30.9297 461.422 28.6094 457.906 28.6094C454.883 28.6094 453.266 29.875 452.141 33.1094L431.891 90.7656H431.68L411.5 33.1094C410.375 29.875 408.547 28.6094 405.664 28.6094C402.148 28.6094 399.547 30.8594 399.547 34.2344C399.547 35.1484 399.758 36.2734 400.18 37.4688L425.352 103.07L423.664 108.203C420.781 117.062 416.352 119.875 411.711 119.875C409.812 119.875 409.32 119.805 407.562 119.805C404.469 119.805 402.641 121.633 402.641 124.305C402.641 128.172 405.945 130.352 411.852 130.352Z" fill="#FE6748"/>
</svg>
